<mxfile host="app.diagrams.net" modified="2023-10-25T08:43:14.685Z" agent="Mozilla/5.0 (Macintosh; Intel Mac OS X 10.15; rv:109.0) Gecko/20100101 Firefox/118.0" version="22.0.7" etag="GepQ915HIPwVgXag9U0S" type="github">
  <diagram name="Page-1" id="DUOFCDKd72A8hqyFqvJV">
    <mxGraphModel>
      <root>
        <mxCell id="0" />
        <mxCell id="1" parent="0" />
      </root>
    </mxGraphModel>
  </diagram>
</mxfile>
